<?xml version="1.0" encoding="UTF-8"?>
<svg width="288px" height="287px" viewBox="0 0 288 287" version="1.1" xmlns="http://www.w3.org/2000/svg" xmlns:xlink="http://www.w3.org/1999/xlink">
    <title>logo/white-line@3x</title>
    <g id="Symbols" stroke="none" stroke-width="1" fill="none" fill-rule="evenodd">
        <g id="nav/footer/desktop" transform="translate(-50.000000, -699.000000)" fill="#EBE5CF">
            <g id="logo/white-line" transform="translate(50.573327, 699.000000)">
                <path d="M143.926673,0 C223.179535,0 287.426673,64.2471384 287.426673,143.5 C287.426673,222.752862 223.179535,287 143.926673,287 C64.6738117,287 0.426673333,222.752862 0.426673333,143.5 C0.426673333,64.2471384 64.6738117,0 143.926673,0 Z M143.926673,3.82666667 C66.7872214,3.82666667 4.25334,66.360548 4.25334,143.5 C4.25334,220.639452 66.7872214,283.173333 143.926673,283.173333 C221.066125,283.173333 283.600007,220.639452 283.600007,143.5 C283.600007,66.360548 221.066125,3.82666667 143.926673,3.82666667 Z" id="Oval" fill-rule="nonzero"></path>
                <path d="M146.337978,151.37012 L169.06234,151.37012 L169.06234,149.849365 L146.337978,149.849365 L146.337978,151.37012 Z M172.682438,144.099726 C173.291224,144.099726 173.81304,144.323189 174.249094,144.768907 C174.686357,145.215832 174.90378,145.763014 174.90378,146.411661 C174.90378,147.04098 174.686357,147.578499 174.249094,148.024217 C173.81304,148.469935 173.291224,148.693398 172.682438,148.693398 C172.054326,148.693398 171.521639,148.469935 171.085585,148.024217 C170.64953,147.578499 170.432107,147.04098 170.432107,146.411661 C170.432107,145.763014 170.64953,145.215832 171.085585,144.768907 C171.521639,144.323189 172.054326,144.099726 172.682438,144.099726 L172.682438,144.099726 Z M151.995817,133.816811 C152.300209,132.965236 152.704858,132.240491 153.212179,131.642577 C153.7195,131.044663 154.307751,130.588074 154.976932,130.27281 C155.647321,129.958754 156.335828,129.801726 157.046077,129.801726 C158.160976,129.801726 159.139381,130.060219 159.9825,130.577203 C160.823204,131.094187 161.522582,131.804437 162.080635,132.706744 C162.638688,133.610258 163.055416,134.679256 163.328403,135.916154 C163.602598,137.154259 163.739092,138.49262 163.739092,139.932446 C163.739092,140.926553 163.602598,141.859058 163.328403,142.731167 C163.055416,143.603276 162.668886,144.364258 162.172436,145.012904 C161.674778,145.662758 161.081696,146.173703 160.391981,146.549362 C159.702266,146.923813 158.932829,147.112247 158.080046,147.112247 C157.046077,147.112247 156.123236,146.852547 155.311522,146.33677 C154.501016,145.818578 153.816133,145.098665 153.25808,144.175824 C152.700027,143.252983 152.274843,142.152579 151.981322,140.875821 C151.685384,139.597855 151.539228,138.208762 151.539228,136.707333 C151.539228,135.632295 151.691424,134.669593 151.995817,133.816811 L151.995817,133.816811 Z M153.547977,147.932416 C154.805409,148.439737 156.164305,148.693398 157.624665,148.693398 C159.042748,148.693398 160.382317,148.425242 161.639749,147.887724 C162.897181,147.350205 163.992753,146.620629 164.925257,145.69658 C165.857762,144.774946 166.593377,143.689038 167.132104,142.442477 C167.668415,141.194709 167.937778,139.861179 167.937778,138.441888 C167.937778,136.960993 167.673246,135.592434 167.145391,134.335003 C166.618743,133.077571 165.893999,131.991662 164.971158,131.079692 C164.048316,130.166514 162.958784,129.457473 161.701352,128.950152 C160.442713,128.442831 159.083817,128.18917 157.624665,128.18917 C156.204166,128.18917 154.870636,128.458533 153.624076,128.996052 C152.376307,129.533571 151.285567,130.267979 150.353062,131.200483 C149.420558,132.134196 148.684942,133.218896 148.147424,134.455794 C147.608697,135.693899 147.341749,137.022597 147.341749,138.441888 C147.341749,139.943317 147.605073,141.316707 148.131721,142.564476 C148.659576,143.811036 149.379489,144.890905 150.291459,145.804083 C151.204637,146.716053 152.289338,147.426303 153.547977,147.932416 L153.547977,147.932416 Z M122.739092,136.831747 C122.234187,138.517986 121.981734,140.424064 121.981734,142.545149 C121.981734,144.806352 122.286127,146.910526 122.89612,148.858881 C123.502489,150.807236 124.338361,152.494682 125.400112,153.920013 C126.460655,155.347759 127.722918,156.460242 129.183278,157.259877 C130.644846,158.060719 132.225997,158.460537 133.931562,158.460537 C135.323071,158.460537 136.514068,158.330083 137.50576,158.069175 C138.497452,157.808267 139.350234,157.408449 140.0629,156.868515 C140.775565,156.329788 141.38435,155.642489 141.889256,154.807825 C142.392953,153.971953 142.854374,152.999588 143.272309,151.884689 C143.377397,151.60687 143.540465,151.407566 143.767551,151.285567 C143.99343,151.163568 144.228972,151.101965 144.472969,151.101965 C144.6457,151.101965 144.863123,151.128539 145.124031,151.180479 C145.386147,151.232419 145.602363,151.294022 145.776301,151.364081 C145.567333,151.955956 145.34991,152.625136 145.124031,153.372831 C144.896945,154.120526 144.662611,154.886339 144.419821,155.669063 C144.177032,156.451787 143.958401,157.234511 143.767551,158.017235 C143.576702,158.799959 143.411219,159.556109 143.272309,160.286893 C141.567952,160.599741 139.827358,160.825619 138.052942,160.964529 C136.279734,161.103438 134.330171,161.173497 132.209086,161.173497 C129.288366,161.173497 126.730018,160.720531 124.538874,159.817017 C122.346522,158.912294 120.537077,157.669357 119.111746,156.085791 C117.685208,154.503432 116.615002,152.642047 115.902336,150.502843 C115.189671,148.362431 114.833338,146.058952 114.833338,143.588781 C114.833338,141.536547 115.180008,139.466193 115.87697,137.378929 C116.571517,135.291665 117.667089,133.404914 119.164894,131.717468 C120.659076,130.030021 122.573609,128.65663 124.90487,127.59488 C127.233715,126.534337 130.017942,126.002858 133.253926,126.002858 C135.027134,126.002858 136.688006,126.126064 138.236544,126.368854 C139.783873,126.612851 141.462864,126.977639 143.272309,127.464426 C143.34116,128.40297 143.481277,129.60363 143.689038,131.065198 C143.898005,132.526765 144.192735,133.953304 144.576849,135.343605 C144.401703,135.378635 144.177032,135.422119 143.898005,135.474059 C143.620187,135.525999 143.411219,135.552573 143.272309,135.552573 C142.993283,135.552573 142.758949,135.509089 142.568099,135.422119 C142.374834,135.33515 142.245588,135.152756 142.17553,134.873729 C141.792623,133.726217 141.358984,132.761099 140.87099,131.978376 C140.384203,131.195652 139.801992,130.568748 139.123148,130.10008 C138.445512,129.630204 137.653124,129.290782 136.748402,129.081814 C135.843679,128.874054 134.783136,128.768966 133.566774,128.768966 C131.68727,128.768966 130.026397,129.091477 128.582948,129.734084 C127.138291,130.377898 125.929175,131.299532 124.95681,132.500191 C123.982029,133.699644 123.242789,135.144301 122.739092,136.831747 L122.739092,136.831747 Z M240.502814,212.888843 C240.698495,213.059158 240.814454,213.257255 240.849483,213.480718 C240.88572,213.704181 240.728692,214.105206 240.378399,214.685001 C240.009987,215.286539 239.658486,215.844592 239.323896,216.361577 C238.989306,216.878561 238.636597,217.407625 238.262145,217.946351 C237.888902,218.486286 237.461303,219.05521 236.979348,219.654332 C236.496185,220.253454 235.922429,220.935922 235.255664,221.702943 C233.544059,223.67304 231.803465,225.145479 230.031465,226.122676 C228.26188,227.101081 226.491088,227.627729 224.71788,227.701411 C222.949504,227.776301 221.19079,227.448959 219.444156,226.719382 C217.701146,225.991014 215.997997,224.903898 214.337124,223.460448 C213.047079,222.33951 211.937012,220.991486 211.006923,219.415167 C210.075627,217.83764 209.474089,216.136906 209.203518,214.308134 C208.931739,212.479362 209.057361,210.593819 209.577969,208.649088 C210.097369,206.703149 211.155496,204.813982 212.751142,202.977963 C213.852753,201.710868 215.071532,200.498129 216.406269,199.33733 C217.741007,198.177739 219.074537,197.140147 220.404443,196.224553 C221.03497,196.694429 221.862387,197.262145 222.895148,197.92891 C223.925493,198.594467 224.98362,199.189966 226.067113,199.708158 C225.992222,199.837404 225.906461,199.990808 225.806205,200.171994 C225.707156,200.35318 225.617771,200.488466 225.541673,200.575435 C225.389476,200.750582 225.234864,200.874996 225.075421,200.946263 C224.915977,201.019945 224.731167,201.001827 224.518575,200.894323 C222.610082,200.04154 220.925051,199.897799 219.455028,200.4631 C217.986212,201.027193 216.576584,202.08532 215.22856,203.636273 C214.201838,204.816398 213.497628,206.035177 213.113514,207.293816 C212.730607,208.551248 212.653301,209.808679 212.886427,211.064903 C213.117138,212.321127 213.625667,213.568895 214.408391,214.805792 C215.194738,216.045105 216.252865,217.242141 217.583979,218.400524 C219.049171,219.673659 220.54456,220.666559 222.072563,221.380432 C223.599358,222.095513 225.099579,222.497746 226.574434,222.589547 C228.046873,222.682556 229.46254,222.444598 230.816604,221.876882 C232.173084,221.310373 233.411189,220.3827 234.530919,219.093863 C234.930737,218.634858 235.265327,218.206051 235.534691,217.807442 C235.805262,217.41004 236.056506,216.96553 236.288425,216.477536 L231.569131,212.375482 C230.978464,211.862122 230.427658,211.670065 229.911882,211.798103 C229.399729,211.926141 228.726925,212.358572 227.894676,213.092979 C227.698995,213.230681 227.503314,213.270542 227.302802,213.211354 C227.103497,213.153375 226.939222,213.067613 226.808768,212.95407 C226.742333,212.897298 226.648116,212.805497 226.526117,212.681083 C226.405327,212.555461 226.321981,212.453996 226.274873,212.375482 C226.581681,212.067466 226.922311,211.720797 227.294346,211.334266 C227.66759,210.948944 228.045665,210.547919 228.428571,210.129983 C228.81027,209.712047 229.178682,209.309814 229.535015,208.923283 C229.891347,208.536753 230.192116,208.199747 230.440945,207.913473 C230.689774,207.627199 230.976048,207.287777 231.302183,206.891583 C231.623486,206.496597 231.958077,206.091948 232.299915,205.677636 C232.641752,205.262116 232.966679,204.852635 233.277112,204.450402 C233.588752,204.050585 233.847244,203.709955 234.053796,203.428513 C234.199953,203.479245 234.326783,203.551719 234.436703,203.647144 C234.546622,203.742568 234.633592,203.818667 234.700027,203.875438 C234.895708,204.045753 235.010459,204.212444 235.043072,204.375512 C235.074478,204.537371 235.064815,204.691984 235.012875,204.83814 C234.492266,205.613617 234.21324,206.22361 234.172171,206.666912 C234.129894,207.111422 234.34007,207.531774 234.799075,207.931591 L240.502814,212.888843 Z M202.015261,218.631235 L215.100521,240.407389 C215.01476,240.490734 214.85894,240.611525 214.630645,240.763722 C214.401143,240.917126 214.251363,241.017382 214.17768,241.063283 C214.002534,241.167163 213.79115,241.234805 213.539905,241.268627 C213.28866,241.30124 212.970981,241.246884 212.58445,241.109183 L186.734025,231.308223 L196.396076,247.389093 C196.544648,247.636714 196.687181,247.831188 196.821259,247.970097 C196.955337,248.110214 197.136523,248.186312 197.364817,248.200807 C197.593112,248.215302 197.887841,248.173025 198.251422,248.073977 C198.612586,247.973721 199.086085,247.816693 199.665881,247.604101 C199.803582,247.554577 199.9437,247.547329 200.082609,247.581151 C200.222726,247.614972 200.372507,247.768376 200.536782,248.041363 C200.64187,248.215302 200.744542,248.442389 200.843591,248.718999 C200.192529,249.042719 199.583743,249.349527 199.014819,249.639425 C198.445895,249.931739 197.80208,250.292903 197.082167,250.725334 C196.363462,251.157764 195.685826,251.590195 195.051675,252.022626 C194.415108,252.455057 193.840144,252.859706 193.324367,253.237781 C193.214448,253.16893 193.122647,253.072298 193.048964,252.946675 C192.972866,252.823469 192.913679,252.72442 192.868986,252.648322 C192.720414,252.400701 192.65881,252.201396 192.686592,252.050408 C192.713166,251.89942 192.782017,251.773797 192.891936,251.674749 C193.695195,250.98745 194.178358,250.443891 194.342633,250.042866 C194.506909,249.640633 194.446513,249.20337 194.163863,248.731079 L182.845771,229.896179 C182.606605,229.498777 182.293757,229.275314 181.907227,229.219751 C181.520696,229.166603 180.828566,229.351413 179.836874,229.78022 C179.493828,229.8841 179.20393,229.737943 178.964764,229.339334 C178.934567,229.289809 178.901953,229.235454 178.864508,229.172642 C178.827063,229.111039 178.798073,229.036149 178.778747,228.944348 L178.637422,228.62546 C178.999794,228.441858 179.345255,228.259464 179.675014,228.07707 C180.005981,227.897092 180.339363,227.721946 180.676369,227.552839 C181.236838,227.249654 181.800931,226.93439 182.366232,226.613087 C182.93274,226.289367 183.389329,226.023628 183.737206,225.81466 C184.455911,225.382229 184.94753,225.130984 185.206022,225.05851 C185.46693,224.984828 185.737501,224.98362 186.014112,225.053678 L207.766108,233.262617 L199.826533,220.046902 C199.49919,219.502136 199.082462,219.229149 198.575141,219.227941 C198.069027,219.229149 197.306838,219.451404 196.28978,219.893498 C195.922576,220.013081 195.619391,219.875379 195.380226,219.47677 C195.335533,219.403088 195.276346,219.304039 195.201455,219.179625 C195.126565,219.05521 195.077041,218.917509 195.052883,218.762897 C195.717232,218.464543 196.356215,218.14928 196.966208,217.814689 C197.576201,217.482515 198.279203,217.076658 199.072799,216.600742 C199.866394,216.122411 200.541614,215.700851 201.097251,215.33244 C201.654097,214.965236 202.194031,214.572666 202.720679,214.15473 C202.819727,214.26465 202.912736,214.376985 202.999705,214.492944 C203.086675,214.610111 203.15311,214.705536 203.197802,214.780426 C203.451463,215.201986 203.444215,215.528121 203.174852,215.755207 C202.431989,216.37124 201.976608,216.880977 201.81354,217.28321 C201.650473,217.685443 201.716908,218.134785 202.015261,218.631235 L202.015261,218.631235 Z M181.921722,257.139322 C181.957959,257.309637 181.979701,257.455794 181.985741,257.572961 C181.082226,257.789176 180.120732,258.030757 179.096426,258.298913 C178.072121,258.56586 177.173438,258.818313 176.397961,259.055063 C175.595911,259.300268 174.702059,259.596205 173.718823,259.942875 C172.734378,260.288336 171.809121,260.624135 170.93822,260.951477 C170.850043,260.858469 170.779984,260.728015 170.729252,260.561323 C170.67852,260.39584 170.641075,260.271426 170.614501,260.189288 C170.479215,259.744778 170.54565,259.466959 170.813805,259.355832 C171.369443,259.093716 171.806705,258.863006 172.121969,258.658869 C172.438441,258.457149 172.660696,258.261468 172.782695,258.071826 C172.907109,257.883393 172.96992,257.690128 172.96992,257.493239 C172.96992,257.29635 172.926435,257.0596 172.84309,256.781781 L166.48225,235.976785 C166.396488,235.700174 166.299856,235.479127 166.188728,235.316059 C166.078809,235.1542 165.920573,235.028577 165.711605,234.9404 C165.502637,234.852223 165.210323,234.81357 164.834664,234.822025 C164.460213,234.831688 163.967387,234.882421 163.362225,234.979053 C163.05904,234.979053 162.848864,234.786996 162.730489,234.399258 C162.705123,234.315912 162.66647,234.191498 162.615738,234.024806 C162.565006,233.859323 162.546887,233.699879 162.558967,233.542851 C163.462481,233.327844 164.419144,233.08747 165.427747,232.825354 C166.436349,232.560823 167.34228,232.307162 168.145538,232.061957 C168.921015,231.825207 169.807619,231.530478 170.806558,231.180184 C171.80429,230.829891 172.735586,230.492885 173.606487,230.165542 C173.676546,230.295996 173.742981,230.440945 173.808208,230.602805 C173.873435,230.765872 173.918127,230.886663 173.943494,230.971216 C174.061868,231.358955 173.994226,231.635566 173.742981,231.804673 C173.187343,232.063165 172.751289,232.296291 172.434817,232.499219 C172.118345,232.70094 171.891259,232.899037 171.753557,233.092302 C171.615856,233.287983 171.554253,233.48004 171.56754,233.672097 C171.580827,233.865363 171.630351,234.099697 171.716112,234.376307 L178.075745,255.181304 C178.160298,255.459123 178.250891,255.682586 178.347524,255.848069 C178.445364,256.015968 178.6036,256.14159 178.825855,256.224936 C179.04811,256.308282 179.346463,256.344519 179.722122,256.336063 C180.097782,256.328816 180.5894,256.27446 181.195769,256.181451 C181.489291,256.151254 181.700675,256.343311 181.828713,256.760039 C181.852871,256.842177 181.883069,256.970215 181.921722,257.139322 L181.921722,257.139322 Z M157.130631,239.611378 C157.262293,240.147689 157.442271,240.762514 157.674189,241.45706 C157.528032,241.51504 157.348054,241.581475 157.130631,241.652741 C156.914415,241.725216 156.718734,241.761453 156.544796,241.761453 C156.225908,241.761453 155.995198,241.630999 155.850249,241.370091 C155.50358,240.617565 155.161742,239.974958 154.829567,239.437439 C154.496185,238.902336 154.119318,238.468698 153.700174,238.135315 C153.28103,237.803141 152.789412,237.556727 152.224111,237.397284 C151.65881,237.23784 150.986006,237.158118 150.20449,237.158118 L146.382671,237.158118 L146.382671,260.000854 C146.382671,260.289544 146.404413,260.52871 146.447898,260.717143 C146.491383,260.905577 146.600094,261.07106 146.774033,261.217217 C146.947972,261.362166 147.193177,261.484165 147.510856,261.584421 C147.829744,261.687093 148.277878,261.780102 148.858881,261.868279 C149.29252,261.954041 149.509943,262.200454 149.509943,262.606311 C149.509943,262.692072 149.502696,262.823734 149.486993,262.996465 C149.472498,263.170403 149.450756,263.315352 149.421766,263.431311 C148.496509,263.373332 147.504817,263.3226 146.447898,263.279115 C145.390979,263.234422 144.457267,263.213888 143.646761,263.213888 C142.807265,263.213888 141.872345,263.234422 140.845624,263.279115 C139.817694,263.3226 138.841705,263.373332 137.914032,263.431311 C137.856053,263.315352 137.819816,263.170403 137.805321,262.996465 C137.792034,262.823734 137.784786,262.692072 137.784786,262.606311 C137.784786,262.403382 137.819816,262.236691 137.893498,262.106237 C137.964764,261.975783 138.160445,261.881566 138.479333,261.824795 C139.550747,261.678638 140.222343,261.484165 140.498954,261.237752 C140.773149,260.992546 140.912058,260.579442 140.912058,260.000854 L140.912058,237.158118 L137.09024,237.158118 C136.279734,237.158118 135.591226,237.23784 135.027134,237.397284 C134.463041,237.556727 133.970215,237.803141 133.551071,238.135315 C133.130719,238.468698 132.753852,238.902336 132.42047,239.437439 C132.088295,239.974958 131.748873,240.617565 131.400996,241.370091 C131.285037,241.630999 131.067613,241.761453 130.748726,241.761453 C130.575995,241.761453 130.373067,241.725216 130.142356,241.652741 C129.90923,241.581475 129.736499,241.51504 129.62054,241.45706 C129.822261,240.762514 129.9962,240.147689 130.142356,239.611378 C130.286097,239.076275 130.402056,238.547212 130.489026,238.026603 C130.603777,237.361046 130.691954,236.766756 130.748726,236.246148 C130.806705,235.724332 130.880388,235.349881 130.966149,235.116755 C131.082108,234.855847 131.314026,234.7266 131.660696,234.7266 C131.979583,234.7266 132.610111,234.770085 133.551071,234.855847 C134.490823,234.944024 135.627464,234.987508 136.959786,234.987508 L150.334944,234.987508 C151.637068,234.987508 152.759214,234.944024 153.700174,234.855847 C154.641134,234.770085 155.284948,234.7266 155.632826,234.7266 C155.951713,234.7266 156.182423,234.855847 156.327372,235.116755 C156.41555,235.349881 156.479569,235.724332 156.523053,236.246148 C156.566538,236.766756 156.660755,237.361046 156.805704,238.026603 C156.892673,238.547212 157.001385,239.076275 157.130631,239.611378 L157.130631,239.611378 Z M117.91471,231.558259 C119.023569,232.148926 120.248387,232.950977 121.584333,233.966827 C121.399523,234.817194 121.22196,235.781104 121.046814,236.862181 C120.872875,237.94205 120.749669,238.921663 120.678402,239.804643 C120.402999,239.816722 120.127596,239.781693 119.849778,239.703179 C119.459623,239.590843 119.202339,239.435023 119.079133,239.233303 C118.957134,239.03279 118.890699,238.840733 118.883452,238.657131 C118.697434,236.887547 118.19736,235.510532 117.379607,234.522464 C116.563062,233.536812 115.306838,232.79878 113.609728,232.311994 C112.27499,231.929087 111.046549,231.931503 109.926818,232.316825 C108.80588,232.704564 108.054562,233.565801 107.671655,234.900539 C107.375718,235.930884 107.494093,236.860973 108.024364,237.690805 C108.554636,238.51943 109.286628,239.325104 110.222756,240.105412 C111.158884,240.88572 112.181982,241.675692 113.292048,242.475326 C114.402115,243.277377 115.398639,244.163981 116.279203,245.13997 C117.15856,246.113543 117.807206,247.218779 118.220311,248.452052 C118.634623,249.685325 118.610465,251.10824 118.147836,252.722005 C117.843443,253.780131 117.367528,254.757328 116.72009,255.657219 C116.069027,256.553487 115.246443,257.274607 114.246295,257.81575 C113.248564,258.3581 112.084141,258.686651 110.757859,258.80261 C109.429161,258.919777 107.930148,258.737383 106.26082,258.259052 C104.423592,257.732404 102.836402,257.063224 101.50408,256.252718 C100.170551,255.442212 99.096721,254.669151 98.2850072,253.934744 C98.5422915,252.715965 98.7476357,251.504434 98.8974163,250.297734 C99.0471968,249.091035 99.1667796,247.912117 99.2561647,246.763397 C99.565389,246.731992 99.9011873,246.768229 100.264767,246.872109 C100.599358,246.967534 100.831276,247.102819 100.960522,247.274342 C101.0946,247.448281 101.16949,247.704357 101.193648,248.042571 C101.252836,249.20337 101.394161,250.230092 101.620039,251.122735 C101.84471,252.016587 102.181716,252.790855 102.626226,253.444333 C103.070736,254.100227 103.643284,254.647409 104.346286,255.089503 C105.046873,255.531597 105.898447,255.896385 106.899803,256.183867 C107.763456,256.43028 108.534101,256.524497 109.215361,256.462894 C109.895413,256.40129 110.48608,256.230975 110.987361,255.953157 C111.488643,255.67413 111.912618,255.298471 112.259288,254.823763 C112.605957,254.350264 112.859618,253.834487 113.020269,253.277642 C113.363315,252.079398 113.292048,251.040597 112.80647,250.162449 C112.320891,249.283092 111.6348,248.468963 110.750611,247.717644 C109.866423,246.966326 108.891642,246.219839 107.82506,245.476976 C106.75727,244.732905 105.806646,243.901865 104.970775,242.982647 C104.133695,242.064638 103.517662,241.013758 103.12026,239.828801 C102.720443,238.643844 102.763928,237.21489 103.242259,235.543146 C103.563562,234.427039 104.062428,233.446219 104.741272,232.600683 C105.420116,231.75394 106.251156,231.088383 107.234393,230.600389 C108.216422,230.113602 109.316825,229.817665 110.536812,229.716201 C111.75559,229.612321 113.075833,229.764517 114.495124,230.171582 C115.664379,230.506172 116.803435,230.968801 117.91471,231.558259 L117.91471,231.558259 Z M83.3335297,234.08641 L77.1405886,229.909466 L85.7372654,223.921869 L83.3335297,234.08641 Z M91.8311581,219.391008 C91.7031199,219.267802 91.5835371,219.161506 91.4724096,219.068497 C91.3588663,218.975488 91.2441151,218.888519 91.1245323,218.806381 C90.7404178,218.547889 90.3140265,218.557552 89.8465663,218.836579 L67.1826002,233.721622 C66.7151401,234.000648 66.2633827,234.114191 65.8261203,234.062251 C65.3888578,234.012727 64.7486669,233.807383 63.9091713,233.45105 C63.5794125,233.265033 63.2617329,233.39911 62.9549244,233.854491 C62.9054002,233.926966 62.8413811,234.023598 62.7604513,234.143181 C62.6795216,234.262764 62.6299973,234.387179 62.6130866,234.516425 C63.3112571,234.881213 63.9309136,235.22909 64.4756798,235.561264 C65.0192381,235.893439 65.530183,236.220782 66.0109301,236.545709 C66.7078926,237.014377 67.4036473,237.512035 68.098194,238.032643 C68.7939487,238.553251 69.4510503,239.056948 70.0646672,239.542527 C70.2748431,239.334767 70.4379106,239.146334 70.5514539,238.978434 C70.8268568,238.57137 70.811154,238.229532 70.5091771,237.955337 C69.8206699,237.316354 69.4075656,236.829567 69.2698642,236.491353 C69.1297469,236.153139 69.1502814,235.853578 69.3290516,235.587838 C69.3773679,235.515364 69.4619215,235.416316 69.5827122,235.288277 C69.7047108,235.160239 69.8424123,235.059983 69.9958165,234.989924 L75.2417582,231.247827 L82.8020505,236.347612 L81.2378104,242.782135 C81.165336,243.047874 81.0783667,243.252011 80.9817341,243.395752 C80.7715582,243.707392 80.4635418,243.840262 80.0576849,243.794361 C79.653036,243.747253 79.0973986,243.574522 78.3931886,243.272545 C78.2808532,243.232684 78.1467755,243.237516 77.9897475,243.289456 C77.8327196,243.341396 77.6817311,243.474266 77.5355743,243.690481 C77.4872581,243.761748 77.4220311,243.857172 77.3423092,243.977963 C77.2601715,244.098754 77.2106473,244.22196 77.1949445,244.351206 C77.5464455,244.552927 77.9740447,244.813835 78.4729105,245.13393 C78.9729841,245.454026 79.4839289,245.771706 80.004537,246.088177 C80.5239372,246.404649 81.0276346,246.717497 81.5168371,247.029137 C82.0048316,247.340777 82.416728,247.611348 82.7525263,247.837227 C83.3999646,248.27449 84.0848481,248.762484 84.803553,249.300003 C85.5234658,249.837522 86.251834,250.389535 86.9862416,250.954836 C87.1964175,250.749492 87.3667325,250.548979 87.4971865,250.356922 C87.7713814,249.948649 87.7544707,249.587485 87.4428306,249.272221 C87.0103998,248.876027 86.6528592,248.450844 86.3653773,247.995463 C86.0778953,247.540082 85.9836785,247.083493 86.0839348,246.626904 L91.8311581,219.391008 Z M63.8137466,223.28047 C63.3281678,223.473735 62.7894411,223.700822 62.1963586,223.967769 C61.6020682,224.234717 60.9932829,224.505288 60.3700027,224.779483 C59.7443066,225.053678 59.1343134,225.343576 58.5388151,225.651592 C57.9421088,225.958401 57.3768082,226.267625 56.8429131,226.579265 C55.7147276,225.679374 54.6239873,224.710633 53.5670683,223.67304 C52.5113573,222.63424 51.4037062,221.448075 50.245323,220.114545 C48.6508853,218.280942 47.5384026,216.428012 46.9090829,214.558171 C46.280971,212.685915 46.0744189,210.871638 46.2906343,209.111717 C46.5044339,207.351796 47.090269,205.663141 48.0445158,204.046961 C48.9987626,202.431989 50.2513626,200.949887 51.8035236,199.600654 C53.0911528,198.480924 54.5817105,197.566538 56.2715729,196.864744 C57.9638512,196.16295 59.7467224,195.821112 61.6238105,195.840438 C63.5008986,195.857349 65.4081843,196.309106 67.3456677,197.194503 C69.285567,198.077483 71.1384969,199.536635 72.9056654,201.569543 C73.8731992,202.683234 74.7030316,203.793301 75.3963704,204.898536 C76.0885013,206.003771 76.7758006,207.257579 77.4570604,208.658751 C76.9050467,209.215597 76.2274107,209.95846 75.4241523,210.888548 C74.6208939,211.816221 73.8852783,212.781339 73.2209292,213.780279 C73.1037622,213.690894 72.9527738,213.572519 72.7691718,213.426362 C72.5831541,213.278997 72.453908,213.16183 72.376602,213.074861 C72.2244056,212.899714 72.1241493,212.729399 72.0746251,212.5615 C72.023893,212.394809 72.0673777,212.212415 72.206287,212.016734 C72.7172318,211.149456 73.0856436,210.348614 73.3127302,209.616622 C73.5374009,208.882214 73.6134991,208.174381 73.536193,207.491913 C73.4625107,206.810653 73.2426715,206.126978 72.8802993,205.445718 C72.5179271,204.762042 72.0033586,204.039714 71.3390095,203.276316 C70.3122882,202.094983 69.2034293,201.227705 68.0112247,200.673276 C66.8190201,200.117638 65.5797072,199.861562 64.2944937,199.905047 C63.0080724,199.948531 61.6974929,200.272251 60.3639631,200.876204 C59.0292255,201.481366 57.6944878,202.36193 56.362166,203.520313 C54.9416669,204.754795 53.7856996,206.095572 52.8942639,207.541437 C52.0028283,208.987302 51.3988746,210.434375 51.0824029,211.879032 C50.7659311,213.32369 50.75506,214.722446 51.0509973,216.077719 C51.3457267,217.432991 51.9593436,218.644522 52.8894323,219.714728 C53.649206,220.59046 54.3824058,221.266889 55.0866158,221.747636 C55.7932416,222.227175 56.5083228,222.544855 57.2366909,222.697051 C57.9650591,222.851663 58.7284565,222.858911 59.5292991,222.718793 C60.3277259,222.579884 61.1925876,222.338302 62.1190525,221.992841 C62.3509707,221.90708 62.5659783,221.90104 62.7664909,221.97593 C62.9657956,222.052028 63.1336947,222.165572 63.2653566,222.317768 C63.3595734,222.42648 63.4634534,222.579884 63.5721651,222.770733 C63.6820847,222.963998 63.7618066,223.133106 63.8137466,223.28047 L63.8137466,223.28047 Z M178.583066,36.2263501 L178.89229,46.6675014 L171.828448,44.2347759 L178.583066,36.2263501 Z M162.798132,53.5272074 C163.591727,53.8001944 164.39257,54.0985476 165.199452,54.4222667 C166.006334,54.7459859 166.769732,55.0612497 167.488436,55.3716819 C167.639425,55.1168135 167.745721,54.8945585 167.812156,54.7012933 C167.972807,54.2374569 167.870135,53.9113219 167.505347,53.7240963 C166.676723,53.2856259 166.152491,52.9220458 165.930236,52.6309401 C165.709189,52.3398344 165.651209,52.0438971 165.755089,51.7431282 C165.782871,51.6609905 165.838435,51.5414077 165.922989,51.3867955 C166.006334,51.2321834 166.113838,51.1005215 166.243084,50.9930177 L170.342722,46.020063 L178.964764,48.9890994 L179.119377,55.6096397 C179.116961,55.8850426 179.087971,56.1036738 179.031199,56.2679492 C178.909201,56.6254898 178.644669,56.832042 178.241228,56.8924373 C177.837787,56.9540406 177.255576,56.9274666 176.498218,56.8199629 C176.379843,56.8090917 176.250597,56.8501606 176.112895,56.9395457 C175.975194,57.0301388 175.862858,57.1992458 175.778305,57.444451 C175.749315,57.5265887 175.71187,57.6365083 175.664762,57.7730018 C175.617653,57.9119111 175.60195,58.0423651 175.620069,58.1704033 C176.012639,58.2754913 176.492178,58.4180243 177.057479,58.5980025 C177.623987,58.7755649 178.198951,58.9519194 178.783578,59.1234422 C179.366998,59.2925493 179.934714,59.46528 180.487936,59.6404266 C181.039949,59.8155732 181.507409,59.9689774 181.890316,60.1006393 C182.629555,60.3555078 183.415903,60.6490293 184.250567,60.9836196 C185.085231,61.3157941 185.930766,61.6600477 186.788381,62.0163804 C186.936953,61.7615119 187.050496,61.52597 187.125387,61.3061309 C187.28483,60.8410865 187.173703,60.4968329 186.793212,60.2733701 C186.271396,60.0015909 185.814807,59.6827034 185.421029,59.3191232 C185.026044,58.9531273 184.817076,58.5363993 184.795333,58.0689391 L183.29632,30.2725746 C183.141708,30.1880211 182.997967,30.1167546 182.867513,30.0551513 C182.733435,29.993548 182.599358,29.9404001 182.462864,29.8932917 C182.025602,29.7423033 181.617329,29.8618861 181.238046,30.2520402 L163.199157,50.4953599 C162.818667,50.8855139 162.410394,51.1126005 161.975547,51.1766196 C161.540701,51.2418466 160.869104,51.2092331 159.964381,51.0811949 C159.599593,50.9857703 159.327814,51.1995699 159.149044,51.71897 C159.121262,51.8011077 159.083817,51.9110273 159.035501,52.0475208 C158.988392,52.1840144 158.97269,52.3156763 158.9896,52.4449224 C159.757829,52.6176531 160.447544,52.7927997 161.058746,52.9739858 C161.669947,53.1527561 162.25095,53.3375659 162.798132,53.5272074 L162.798132,53.5272074 Z M93.7142857,34.4036178 L93.6490587,34.0593642 C94.0428365,33.9615237 94.4209115,33.8624753 94.7844916,33.7585953 C95.1468639,33.6571311 95.5116519,33.5617064 95.8776478,33.4723212 C96.4924727,33.3032142 97.1121292,33.1244439 97.7354094,32.9372183 C98.3598975,32.7499926 98.8648028,32.5941726 99.2501252,32.4685502 C100.048552,32.2088501 100.583655,32.0723566 100.853018,32.0614854 C101.12359,32.0494064 101.386913,32.1085938 101.641782,32.2378399 L120.988834,45.1298353 L116.224848,30.4670477 C116.029167,29.863094 115.683705,29.5019297 115.189671,29.3883864 C114.695637,29.2748431 113.904457,29.3195357 112.813717,29.5224641 C112.428395,29.5550776 112.165071,29.3521492 112.02133,28.911263 C111.994756,28.8291253 111.959727,28.7192057 111.915034,28.5815043 C111.870341,28.4438028 111.852223,28.2976461 111.863094,28.141826 C112.576967,27.9992929 113.270306,27.8374333 113.939487,27.6489998 C114.609875,27.4629821 115.385352,27.2250243 116.265916,26.9387503 C117.147689,26.6536841 117.900215,26.393984 118.523495,26.15965 C119.147983,25.9265239 119.764016,25.664408 120.371594,25.376926 C120.441652,25.5061721 120.508087,25.6366261 120.567275,25.7694959 C120.625254,25.9035736 120.668739,26.0110774 120.694105,26.0932151 C120.847509,26.5618832 120.766579,26.877147 120.453731,27.0390066 C119.590077,27.4726453 119.033232,27.8664231 118.783195,28.2215479 C118.533159,28.5754647 118.498129,29.0296379 118.675692,29.5804437 L126.525882,53.741007 C126.425625,53.8038182 126.246855,53.8859559 125.989571,53.9837964 C125.732286,54.0828448 125.563179,54.145656 125.479834,54.1722299 C125.287777,54.2350411 125.065522,54.2543676 124.813069,54.2302095 C124.560616,54.2048434 124.263471,54.0816369 123.916802,53.8593819 L100.935156,38.496008 L106.731903,56.3380078 C106.821289,56.6122028 106.915505,56.8332499 107.015762,56.9987332 C107.11481,57.1642165 107.274254,57.2801756 107.494093,57.3454026 C107.712724,57.4118375 108.008662,57.4372035 108.385529,57.4215008 C108.75998,57.405798 109.25643,57.3598975 109.868839,57.2825914 C110.014996,57.2644728 110.152697,57.2886309 110.280735,57.35265 C110.408774,57.417877 110.521109,57.6026869 110.620157,57.9058716 C110.682969,58.0979289 110.731285,58.3419262 110.766314,58.6342398 C110.059688,58.8021389 109.396547,58.9639985 108.778099,59.1198185 C108.158442,59.2744307 107.4494,59.4833986 106.650974,59.7430987 C105.852547,60.0027988 105.093981,60.2709542 104.3789,60.5487729 C103.662611,60.8277995 103.010341,61.0923313 102.42209,61.3447839 C102.331497,61.2529829 102.263854,61.1382317 102.219162,61.0005303 C102.174469,60.861621 102.13944,60.7529093 102.111658,60.6695637 C102.022273,60.3953687 102.007778,60.1851928 102.069381,60.0450756 C102.129776,59.9037504 102.223993,59.7962466 102.353239,59.7249801 C103.290575,59.2357776 103.883658,58.8154259 104.133695,58.461509 C104.383732,58.1063842 104.423592,57.665498 104.253278,57.1424741 L97.4636302,36.2456766 C97.3210971,35.8035825 97.0674366,35.5136847 96.7014407,35.3735675 C96.3354447,35.2334502 95.6203636,35.2600242 94.558613,35.4532893 C94.2010724,35.4774475 93.9510356,35.2696874 93.8072946,34.8300091 C93.789176,34.7744454 93.7686415,34.7128421 93.7468992,34.6439914 C93.7251569,34.5763486 93.7142857,34.4954188 93.7142857,34.4036178 L93.7142857,34.4036178 Z M240.198421,85.0137289 L233.724037,93.2105883 L229.87806,86.8074713 L240.198421,85.0137289 Z M217.867837,85.7904133 C217.492178,85.5609109 216.999352,85.104322 216.388151,84.425478 C216.169519,84.1174616 215.824058,84.1053826 215.351766,84.3880329 C215.278084,84.4327255 215.179035,84.4931208 215.054621,84.5668032 C214.931414,84.6416934 214.833574,84.7334944 214.764723,84.8422061 C215.243055,85.4703179 215.656159,86.0464897 216.008868,86.5779689 C216.361577,87.1082403 216.687712,87.6216009 216.986065,88.1192588 C217.418496,88.8391716 217.840055,89.5820346 218.249536,90.3490558 C218.660224,91.114869 219.041923,91.8492767 219.394632,92.5486551 C219.672451,92.4483988 219.897122,92.3481425 220.072268,92.2430545 C220.49262,91.989394 220.62549,91.6729223 220.466046,91.2972631 C220.112129,90.4275697 219.945438,89.811537 219.962349,89.446749 C219.979259,89.080753 220.124208,88.8174292 220.397195,88.6531538 C220.472086,88.6084612 220.59046,88.5528975 220.754736,88.4888784 C220.919011,88.4236514 221.085703,88.3910379 221.253602,88.3910379 L227.590284,87.2181599 L232.287835,95.0345285 L228.150753,100.20558 C227.971982,100.415756 227.807707,100.564328 227.659134,100.653714 C227.336623,100.846979 227.000825,100.837315 226.654155,100.624724 C226.30507,100.410924 225.875055,100.018354 225.36411,99.4494299 C225.279557,99.3648764 225.15635,99.3117285 224.992075,99.292402 C224.8278,99.2718675 224.634534,99.3286392 224.411072,99.4627169 C224.336181,99.5086174 224.237133,99.5678048 224.112718,99.6426951 C223.989512,99.7163775 223.892879,99.8093863 223.822821,99.918098 C224.057155,100.250273 224.332558,100.668208 224.651445,101.16949 C224.969125,101.670772 225.296468,102.174469 225.634682,102.680582 C225.971688,103.186695 226.296615,103.684353 226.607047,104.173556 C226.918687,104.66155 227.178387,105.079486 227.386147,105.428571 C227.789588,106.09896 228.202693,106.828536 228.627876,107.619715 C229.05306,108.412103 229.479451,109.220193 229.90705,110.042778 C230.184869,109.943729 230.422827,109.83381 230.620923,109.715435 C231.043691,109.461774 231.178977,109.125976 231.030404,108.710456 C230.805733,108.169313 230.660784,107.631794 230.594349,107.097899 C230.526707,106.562796 230.63421,106.109831 230.916861,105.737796 L247.637922,83.4821023 C247.571487,83.3178269 247.508676,83.1692543 247.448281,83.0400082 C247.38547,82.9071384 247.316619,82.7791003 247.242937,82.6546858 C247.004979,82.2572843 246.613617,82.0869693 246.072474,82.1425331 L219.241228,86.0549451 C218.700085,86.1093009 218.241081,86.0211236 217.867837,85.7904133 L217.867837,85.7904133 Z M192.867778,66.2368088 C192.236043,65.7983384 191.651416,65.4057685 191.112689,65.060307 C191.140471,64.9334767 191.196035,64.812686 191.286628,64.6991427 C191.376013,64.5843915 191.446071,64.4937984 191.500427,64.4249477 C191.67799,64.1966532 191.842265,64.068615 191.994461,64.0396253 C192.144242,64.0106355 192.285567,64.029962 192.417229,64.095189 C193.347318,64.6000943 194.027369,64.8573785 194.462216,64.864626 C194.895855,64.8742892 195.282385,64.6616976 195.621807,64.2280588 L209.149162,46.9127066 C209.434228,46.5479186 209.532068,46.1746752 209.446307,45.7941844 C209.356922,45.4124856 208.935362,44.8351059 208.18042,44.0608373 C207.959373,43.7793949 207.993194,43.4556757 208.277053,43.0908877 C208.312082,43.0449872 208.353151,42.9930472 208.397843,42.9362755 C208.442536,42.8795039 208.504139,42.825148 208.57903,42.7756238 L208.826651,42.5280028 C209.128627,42.8009899 209.423357,43.0582742 209.712047,43.3010635 C209.999529,43.5450608 210.282179,43.7938898 210.561206,44.0475503 C211.044369,44.4630704 211.539611,44.8773827 212.043308,45.2880712 C212.548213,45.7011755 212.96011,46.0321421 213.280205,46.2821789 C213.942138,46.7991633 214.351619,47.1663671 214.512271,47.3837905 C214.672922,47.6012138 214.771971,47.8512506 214.805792,48.1363168 L214.938662,71.38491 L224.42919,59.2357776 C224.820552,58.7344961 224.92564,58.2477094 224.744454,57.7754176 C224.56206,57.3031258 224.082521,56.6701824 223.305836,55.8777951 C223.063047,55.5782341 223.084789,55.2460596 223.368647,54.8812715 C223.423003,54.8124208 223.49427,54.7218278 223.583655,54.6070766 C223.671832,54.4935333 223.784168,54.3969007 223.918245,54.3183867 C224.43523,54.8317473 224.959461,55.3161182 225.488525,55.7654597 C226.018796,56.2160092 226.648116,56.726954 227.3789,57.2970863 C228.108476,57.8672186 228.742627,58.3455499 229.287394,58.7332882 C229.829744,59.1210264 230.390213,59.4846065 230.967593,59.8264443 C230.902366,59.9581062 230.828683,60.0849365 230.752585,60.2081431 C230.674071,60.3313496 230.608844,60.4267743 230.554488,60.495625 C230.251304,60.8833633 229.946911,60.9932829 229.637687,60.8253837 C228.794567,60.351884 228.156792,60.1103026 227.721946,60.1018472 C227.289515,60.0933919 226.892113,60.3156468 226.535781,60.7722358 L210.895796,80.7908847 C210.787084,80.7425684 210.620393,80.6386884 210.393306,80.4816604 C210.168636,80.3234246 210.021271,80.2183366 209.953628,80.1639808 C209.792976,80.0395663 209.652859,79.8656277 209.533276,79.6433727 C209.413694,79.4211178 209.349674,79.104646 209.340011,78.6927496 L209.224052,51.0485814 L197.67525,65.8321598 C197.496479,66.0604543 197.367233,66.2633827 197.283888,66.4373214 C197.20175,66.612468 197.19571,66.808149 197.264561,67.0267802 C197.333412,67.2454114 197.477153,67.5063194 197.699408,67.8082963 C197.922871,68.111481 198.238135,68.4968035 198.646407,68.9618478 C198.74304,69.0729753 198.798604,69.2010135 198.816722,69.3435465 C198.833633,69.4848717 198.744248,69.6817606 198.548567,69.9317974 C198.424152,70.0924491 198.249006,70.2688036 198.026751,70.4608609 C197.491648,69.9692426 196.985535,69.5102378 196.512035,69.0838464 C196.034911,68.6574551 195.468403,68.1851634 194.80647,67.6693869 C194.144536,67.1524026 193.498306,66.6752791 192.867778,66.2368088 L192.867778,66.2368088 Z M70.5128009,51.028047 C70.9887164,50.0846714 71.6264915,49.3031553 72.4249182,48.6798751 C73.6787261,47.6990543 75.0074242,47.128922 76.4085968,46.9718941 C77.8097693,46.8148661 79.2206051,46.9972601 80.6423121,47.5226998 C82.0628112,48.0481395 83.4712312,48.8852193 84.8651563,50.0363551 C86.2602893,51.1874908 87.5914032,52.5729606 88.8572902,54.1915564 C89.7306072,55.3100787 90.3949563,56.4805409 90.8539611,57.7017353 C91.3129659,58.9229296 91.5472999,60.11755 91.5581711,61.2843885 C91.5702501,62.4512271 91.3528268,63.548007 90.907109,64.577144 C90.4625991,65.6050732 89.759597,66.4916772 88.8017264,67.2405798 C87.6373037,68.150134 86.3714168,68.6707421 85.0052735,68.802404 C83.6391303,68.9340659 82.2355419,68.725098 80.7981322,68.176708 C79.3595145,67.629526 77.9124414,66.7658722 76.4593289,65.5869546 C75.0050084,64.408037 73.6195386,62.974251 72.3005038,61.2868043 C71.3559202,60.0776891 70.6794921,58.8589105 70.2736352,57.6340924 C69.8677783,56.4092744 69.6865922,55.2363963 69.7312848,54.1178741 C69.7759774,53.0005598 70.0356775,51.9690069 70.5128009,51.028047 L70.5128009,51.028047 Z M69.1007572,66.925316 C70.4209999,68.6139705 71.9236367,69.9281737 73.614707,70.8691335 C75.3033615,71.8076776 77.0620747,72.3898889 78.8920543,72.6133518 C80.7208261,72.8392305 82.5640927,72.6834104 84.4242701,72.1483075 C86.2844475,71.6144124 88.0359131,70.7048581 89.6786672,69.4208526 C91.2755207,68.1742922 92.5438235,66.6946057 93.4871991,64.9854167 C94.4293669,63.2762278 95.0188257,61.4933565 95.2579913,59.6343871 C95.4959491,57.7778334 95.3691188,55.9104086 94.8775005,54.0333206 C94.3858822,52.1586483 93.5161889,50.4216775 92.2684206,48.824824 C90.9675043,47.1603276 89.4684913,45.8521639 87.7689656,44.9015408 C86.0706479,43.9497098 84.3022715,43.3674985 82.4626285,43.151283 C80.6217777,42.9362755 78.7724715,43.0957193 76.9110862,43.6296144 C75.0521168,44.1647173 73.3006511,45.0742716 71.659105,46.3570692 C70.0610435,47.6048375 68.7975724,49.0784845 67.8662758,50.780426 C66.9361871,52.4811596 66.3563916,54.2664467 66.1256813,56.1350794 C65.8973868,58.00492 66.0242171,59.8723448 66.5061721,61.7361459 C66.9881272,63.5987391 67.8541967,65.3296703 69.1007572,66.925316 L69.1007572,66.925316 Z M50.1909672,102.036768 C48.8586454,101.134461 47.4393542,100.181422 45.9330937,99.175235 C44.4268332,98.1678402 43.0280765,97.2353357 41.7368235,96.3740978 C40.4491942,95.5152756 39.3669092,94.7989865 38.4948001,94.2240226 C37.6251068,93.6490587 37.1648941,93.3482898 37.114162,93.3180921 C36.6913944,93.0644315 36.3072799,93.0185311 35.9569867,93.1803907 C35.6066936,93.3410423 35.080046,93.8362844 34.3806676,94.6637009 C34.192234,94.923401 33.8733465,94.9173615 33.4264208,94.649206 C33.3527384,94.6045134 33.2548979,94.545326 33.1292756,94.4692278 C33.006069,94.3955455 32.8973573,94.297705 32.8019327,94.1720826 C33.0205639,93.8652741 33.3140854,93.4328433 33.6824971,92.8772059 C34.049701,92.3215685 34.4181127,91.7490204 34.7889403,91.1607695 C35.1597678,90.5737265 35.5076452,90.0229208 35.8313643,89.5083522 C36.1599152,88.9949916 36.3870017,88.6253719 36.5222874,88.4019091 C36.7892349,87.9561913 37.0175294,87.6191851 37.204755,87.3945143 C37.3895649,87.1674277 37.5526324,86.9971128 37.6915417,86.8763221 C37.831659,86.7567392 37.9705683,86.6975518 38.104646,86.695136 C38.2435554,86.6927201 38.3752173,86.6975518 38.5044634,86.7047992 L59.3795186,89.824824 L46.9139145,72.7099844 C46.7496391,72.4768583 46.6747488,72.2111186 46.6844121,71.9115576 C46.6940754,71.6144124 46.9586071,71.0309931 47.481631,70.1625077 C47.6012138,69.9644109 47.7703208,69.6696815 47.9877442,69.2771116 C48.2075833,68.8857496 48.4455411,68.4617742 48.7016174,68.007601 C48.9564859,67.5534278 49.2077306,67.0956309 49.45052,66.6330024 C49.6945173,66.1715818 49.9010694,65.7729723 50.0689686,65.4347583 C50.2223728,65.4613322 50.3624901,65.5108564 50.4856966,65.5845388 C50.611319,65.660637 50.7091595,65.7186165 50.7828418,65.764517 C51.1802433,66.0024747 51.3336476,66.2802934 51.2442624,66.5979731 C51.0207996,67.1391156 50.8601479,67.5751701 50.7635153,67.9049289 C50.6668827,68.2346876 50.6282297,68.5076746 50.6511799,68.7238901 C50.6741302,68.9388976 50.7441888,69.1176679 50.8637716,69.2553693 C50.9809386,69.3954866 51.1415903,69.5247326 51.3396871,69.6431076 C51.3904192,69.6745132 51.8723743,69.9390449 52.7879681,70.4379106 C53.7035619,70.9379843 54.8426185,71.5455617 56.2015143,72.2606428 C57.561618,72.9769319 59.0328492,73.7596559 60.6164158,74.6100227 C62.1999823,75.4603895 63.7026191,76.2612321 65.1231182,77.0149663 C66.5460331,77.7674926 67.7817223,78.4258021 68.828978,78.987479 C69.8762337,79.5491559 70.5188404,79.8849542 70.7567982,79.9936659 C71.0056271,80.1434464 71.227882,80.2352473 71.4259788,80.2690687 C71.6252836,80.305306 71.8342515,80.278732 72.0577144,80.1917627 C72.2775535,80.1060012 72.5203429,79.93931 72.7860826,79.6928969 C73.0530301,79.4476917 73.3646702,79.1106856 73.7222108,78.6855022 C73.9348025,78.4415049 74.25369,78.4463365 74.6752497,78.6999971 C74.8491883,78.8038771 75.0448693,78.9560734 75.2635006,79.1541702 C74.6909525,79.9936659 74.175176,80.7558554 73.7125475,81.439531 C73.249919,82.1244145 72.7510532,82.9143859 72.2147424,83.8070294 C71.7219162,84.6271985 71.2133871,85.5125946 70.6927791,86.4656336 C70.1709631,87.4174646 69.7494034,88.2195151 69.4256842,88.8693692 C69.1478655,88.7703208 68.9219869,88.6688566 68.7468403,88.5649766 C68.4750611,88.4007012 68.3144095,88.2448811 68.268509,88.0987243 C68.2214006,87.9525675 68.2201927,87.842648 68.2648852,87.7665498 C68.7021477,86.6468197 68.8929971,85.8653036 68.8362254,85.4256253 C68.7782459,84.985947 68.502843,84.6175353 68.0051852,84.3191822 C67.9315028,84.2744896 67.5232301,84.0546504 66.7803671,83.6596647 C66.0399199,83.264679 65.1231182,82.7646054 64.0347936,82.1606517 C62.9452612,81.556698 61.760304,80.9140913 60.4835459,80.2292078 C59.204372,79.5467401 58.0012963,78.9065492 56.870695,78.3122588 C55.7425095,77.7179684 54.7689362,77.200984 53.9523908,76.7625136 C53.1370533,76.3228353 52.6345638,76.0631353 52.4449224,75.9822055 L65.6171523,94.2820022 C65.7657249,94.5404944 65.8696049,94.7470465 65.9287924,94.9016587 C65.9879798,95.0562708 65.9746929,95.2072592 65.8840998,95.3558318 C65.8539021,95.405356 65.8092096,95.4790384 65.7500221,95.5780868 C65.6896267,95.6783431 65.6316472,95.744778 65.5772913,95.7785994 L39.6930442,91.9797307 C40.0010606,92.1971541 40.6327962,92.6211295 41.5918746,93.2468256 C42.5497452,93.8737295 43.6416934,94.5984739 44.8701352,95.418643 C46.0973691,96.2424358 47.3958695,97.1060896 48.7608049,98.0108122 C50.1233244,98.9155349 51.3867955,99.748991 52.5488024,100.514804 C53.7096014,101.280618 54.6843826,101.924432 55.4671066,102.446248 C56.2534543,102.968064 56.6810535,103.250714 56.7559438,103.295407 C56.9781987,103.429485 57.1847509,103.521286 57.3768082,103.567186 C57.5688655,103.614295 57.770586,103.602215 57.9843856,103.527325 C58.1969773,103.453643 58.4373509,103.292991 58.7030905,103.047786 C58.970038,102.802581 59.3082521,102.448664 59.7213564,101.987243 C59.935156,101.744454 60.2516277,101.749286 60.6731874,102.002946 C60.7480777,102.047639 60.8374628,102.109242 60.9413428,102.188964 C61.0452229,102.268686 61.1515187,102.356863 61.2614383,102.457119 C60.8096809,103.09731 60.3929529,103.691601 60.0124621,104.239991 C59.6319712,104.788381 59.2720148,105.347642 58.9289692,105.918982 C58.6294081,106.415432 58.2742834,107.045959 57.8660107,107.812981 C57.4565301,108.580002 57.0977816,109.275756 56.7885573,109.90266 C56.6605191,109.892997 56.5324809,109.85072 56.4092744,109.774622 C56.2848599,109.70094 56.1858115,109.640544 56.1097133,109.595852 C55.8379342,109.431576 55.6809062,109.287835 55.6374216,109.159797 C55.5975606,109.034175 55.5999764,108.900097 55.6507085,108.761188 C55.9381905,107.889079 56.074684,107.211443 56.0601891,106.729488 C56.0469022,106.247533 55.8294788,105.847715 55.4127508,105.528828 C55.214654,105.410453 54.627611,105.023922 53.6516218,104.369237 C52.6768406,103.715759 51.523289,102.939074 50.1909672,102.036768 L50.1909672,102.036768 Z M130.13994,30.4791268 C129.906814,30.4066523 129.734084,30.3414253 129.618125,30.2834458 C129.819845,29.588899 129.993784,28.9740742 130.13994,28.4377633 C130.283681,27.9026603 130.399641,27.3735969 130.48661,26.8529888 C130.601361,26.1874319 130.689538,25.5931414 130.747518,25.0725334 C130.80429,24.5507174 130.877972,24.1750582 130.963733,23.94314 C131.079692,23.682232 131.311611,23.5529859 131.65828,23.5529859 C131.977168,23.5529859 132.607695,23.5952626 133.548655,23.682232 C134.488407,23.7692013 135.625048,23.812686 136.95737,23.812686 L150.332528,23.812686 C151.63586,23.812686 152.756798,23.7692013 153.698966,23.682232 C154.638718,23.5952626 155.282532,23.5529859 155.63041,23.5529859 C155.949297,23.5529859 156.180008,23.682232 156.324957,23.94314 C156.413134,24.1750582 156.477153,24.5507174 156.520638,25.0725334 C156.564122,25.5931414 156.658339,26.1874319 156.803288,26.8529888 C156.890257,27.3735969 156.998969,27.9026603 157.128215,28.4377633 C157.259877,28.9740742 157.439855,29.588899 157.671773,30.2834458 C157.525616,30.3414253 157.345638,30.4066523 157.128215,30.4791268 C156.912,30.5516012 156.716319,30.5866305 156.54238,30.5866305 C156.223492,30.5866305 155.992782,30.4573844 155.847833,30.1964764 C155.501164,29.4439502 155.159326,28.8001355 154.827151,28.2638246 C154.493769,27.7287217 154.116902,27.293875 153.698966,26.9617005 C153.278614,26.629526 152.786996,26.3831129 152.221695,26.2236691 C151.656395,26.0642253 150.98359,25.9845034 150.202074,25.9845034 L146.380255,25.9845034 L146.380255,48.8260319 C146.380255,49.1159296 146.401997,49.3550953 146.445482,49.5423209 C146.488967,49.7319624 146.597678,49.8974457 146.771617,50.0423946 C146.945556,50.1873435 147.190761,50.31055 147.508441,50.4120143 C147.827328,50.5134785 148.275462,50.6064873 148.856465,50.6934567 C149.290104,50.780426 149.507527,51.0268391 149.507527,51.4314881 C149.507527,51.5184574 149.50028,51.6489114 149.484577,51.8228501 C149.47129,51.9967887 149.44834,52.1405297 149.420558,52.2564888 C148.494093,52.1985093 147.502401,52.1489851 146.445482,52.1042925 C145.388563,52.0620157 144.454851,52.0402734 143.644345,52.0402734 C142.804849,52.0402734 141.871137,52.0620157 140.843208,52.1042925 C139.815279,52.1489851 138.839289,52.1985093 137.911617,52.2564888 C137.853637,52.1405297 137.8174,51.9967887 137.802905,51.8228501 C137.789618,51.6489114 137.78237,51.5184574 137.78237,51.4314881 C137.78237,51.2297676 137.8174,51.0630763 137.891082,50.9326223 C137.962349,50.8021683 138.15803,50.7091595 138.476917,50.649972 C139.548331,50.506231 140.219928,50.31055 140.496538,50.0641369 C140.770733,49.8177238 140.909643,49.4058274 140.909643,48.8260319 L140.909643,25.9845034 L137.087824,25.9845034 C136.277318,25.9845034 135.588811,26.0642253 135.024718,26.2236691 C134.460625,26.3831129 133.967799,26.629526 133.548655,26.9617005 C133.128303,27.293875 132.751436,27.7287217 132.418054,28.2638246 C132.085879,28.8001355 131.746457,29.4439502 131.39858,30.1964764 C131.282621,30.4573844 131.065198,30.5866305 130.747518,30.5866305 C130.573579,30.5866305 130.370651,30.5516012 130.13994,30.4791268 L130.13994,30.4791268 Z M136.323218,214.964028 C133.220104,214.730902 130.021566,214.341956 126.951065,213.816516 C126.483605,213.804437 121.079427,212.242613 121.189347,212.76926 C121.242495,213.031376 121.144654,213.512123 121.301682,213.870872 L121.252158,215.390419 C121.086675,216.228707 120.499632,217.361724 119.895678,217.784492 C119.895678,217.784492 118.652741,221.1159 116.92785,219.618095 C115.312877,218.215715 114.896149,217.006599 113.982971,215.076363 C113.457532,214.087087 111.582859,210.736352 110.744572,209.992281 C109.133223,209.815927 107.511004,208.765047 106.056683,208.112777 C104.777509,207.537813 103.142003,206.804614 101.76378,206.195828 C98.5809445,204.492679 95.1613587,202.961052 92.3094894,200.7228 C91.8033762,200.319359 91.0580974,199.831364 90.6075479,199.36632 C90.1678697,198.913355 89.6822909,198.503874 89.3187108,197.93495 C89.1254456,197.631765 88.9152697,197.20175 89.0203577,196.787438 C89.1061191,196.449224 89.0167339,196.386413 89.3658192,196.084436 C89.5590843,195.916537 90.3164423,195.974516 90.358719,196.235424 C90.5229944,197.235571 92.2056094,198.060572 92.4653095,198.140294 C93.0837581,198.331143 98.8768818,200.992163 99.1027605,200.812185 C99.317768,200.64187 98.7150222,200.013758 97.6907168,199.203253 C96.8101523,198.50629 91.2380756,193.956103 89.5711634,194.662729 C88.807766,194.986448 88.1772383,192.500574 89.967357,191.540288 C92.2998262,190.287688 99.2706596,189.036296 100.195917,188.824912 L106.405768,187.755914 L116.744248,186.714698 C120.36797,186.34991 123.70421,186.792004 127.28324,186.6845 C128.154141,186.691748 129.864538,186.595115 130.678667,186.335415 C132.181304,186.188051 133.810771,185.140795 135.160004,184.517515 C137.753381,183.246796 140.488083,181.740536 143.381021,181.360045 C143.776007,181.593171 144.10335,181.785228 144.498335,182.017146 C144.721798,182.660961 144.892113,183.427982 145.316089,183.973956 C146.039625,185.104558 147.224582,186.095042 147.928792,187.252217 C148.213859,187.487759 148.788822,187.960051 149.075096,188.195593 C149.270777,188.838199 149.854197,189.47839 150.238311,190.017117 C150.154966,190.147571 149.987067,190.410895 149.903721,190.541349 C149.588457,190.6561 148.95189,190.885602 148.636626,191.000354 C151.883481,191.964264 156.500103,194.022538 159.887075,194.342633 C161.683234,194.040656 162.616946,193.762838 164.175147,193.209616 C165.22965,192.833957 166.886899,190.830039 167.958312,190.156026 C168.797808,189.623339 169.963439,188.704122 170.975665,188.614736 C171.417759,188.689627 171.522847,188.57246 171.992723,188.973485 C172.272958,189.211443 172.461391,189.541201 172.537489,189.89995 L172.626874,190.317886 C172.644993,190.784138 172.54836,191.089739 172.596677,191.284212 C172.596677,191.284212 175.510149,190.677842 176.924609,189.577439 C178.102319,189.186077 179.277612,188.091713 180.421501,187.652034 C182.032849,185.771323 182.431459,185.289367 182.820405,184.813452 C183.19848,185.046578 186.566126,179.246207 188.15694,177.044192 C189.252512,175.24441 189.926524,175.010076 189.926524,175.010076 C190.148779,175.165896 190.158442,175.006452 190.497864,175.251657 C190.625902,175.343458 190.200719,176.118935 190.634358,176.441446 C190.762396,176.538079 190.971364,176.532039 191.460566,176.908906 C191.582565,177.004331 191.649,177.784639 192.106797,178.148219 C192.19739,178.220694 192.202221,179.377869 192.721622,179.803052 C193.202369,180.19683 193.312288,180.605103 193.451198,180.72227 C193.451198,180.72227 193.44999,180.71623 193.454821,180.711399 C193.458445,180.706567 193.847391,180.950564 194.056359,181.132958 C194.556433,181.565389 194.936924,182.081165 195.174881,183.052323 C195.337949,183.720296 196.226969,184.041599 196.278909,184.3931 C196.326017,184.713196 196.891318,184.902837 196.97104,185.359426 C196.989158,185.464514 196.818843,186.097458 196.926347,186.598739 C197.012109,186.996141 197.252482,187.252217 197.38656,187.790944 C197.40951,187.880329 197.648676,187.315028 197.87697,188.204048 C198.079899,188.990396 197.910792,188.78022 197.979642,189.047167 C198.093186,189.494093 198.747871,189.362431 198.81793,189.64025 C198.895236,189.948266 199.043809,190.459211 199.133194,190.81796 C199.301093,191.489556 199.705742,191.311994 199.722653,191.38326 C199.912294,192.161153 200.19736,191.440032 200.273458,191.664703 C200.420823,192.101965 200.068114,192.19135 200.261379,192.703503 C200.424447,193.135934 201.162478,192.989777 201.267566,193.296585 C201.327962,193.469316 201.832867,194.225466 201.48499,194.636155 C201.273606,194.887399 202.237516,194.584215 201.84857,194.982824 C201.431842,195.411631 203.185723,195.177297 203.050437,195.343988 C202.901865,195.52759 203.41281,196.274077 203.363286,196.342928 C203.276316,196.462511 203.186931,196.816428 203.044398,197.041098 C202.981587,197.138939 202.614383,197.083375 202.509295,197.269393 C202.435613,197.401055 198.29853,197.244027 198.247798,197.344283 C197.75014,197.362402 197.269393,197.382936 196.846625,197.404678 C194.529859,197.263353 192.094718,197.695784 189.791238,197.810535 C189.32861,197.829862 188.125534,197.867307 187.6774,197.886633 C186.573373,198.286451 185.283328,198.715258 184.216746,199.222579 C181.559349,200.164747 178.752173,206.85293 178.342692,207.282945 C178.062458,207.813216 177.745986,208.355567 177.430722,208.866512 C177.534602,209.056153 175.961907,212.101287 175.826621,212.585658 C175.605574,212.673836 175.34225,212.778923 175.121203,212.865893 C172.939722,211.88024 170.690599,210.927201 168.664938,209.639572 C166.838582,210.366732 164.928881,211.126506 163.102525,211.853666 C160.038064,212.770468 156.838317,213.50246 153.769025,214.393896 C154.775211,214.896385 155.67631,215.619922 156.465074,216.407477 C156.330996,216.821789 156.304422,216.906343 156.170344,217.320655 C153.712253,217.687859 152.232566,216.843532 150.111481,215.743128 C149.435053,215.396459 149.034028,215.296202 148.396253,215.031671 C148.131721,214.805792 147.406976,214.926583 147.108623,214.98577 C143.55496,215.682733 139.893793,215.342103 136.323218,214.964028 L136.323218,214.964028 Z M128.66267,73.1182571 C128.580532,75.7647821 126.179212,82.4275992 125.900186,83.3347376 L123.719913,89.2462363 L119.453584,98.7210618 C117.958195,102.040391 115.907168,104.709867 114.210058,107.862505 C113.767964,108.613823 112.996111,110.143034 112.814925,110.977698 C112.191645,112.352296 112.283446,114.287364 112.14816,115.767051 C111.952479,118.649118 111.889668,121.77035 110.772354,124.465192 C110.372536,124.69107 110.042778,124.878296 109.644168,125.104175 C108.974987,124.977344 108.226085,124.740595 107.541201,124.834811 C106.200424,124.895207 104.749727,125.427894 103.395663,125.458092 C103.048994,125.587338 102.352031,125.849453 102.005362,125.9787 C101.350676,125.827711 100.505141,126.012521 99.8468315,126.075332 C99.774357,125.937631 99.630616,125.66102 99.5593495,125.523319 C99.618537,125.19356 99.7369119,124.528003 99.7960993,124.197036 C97.3367999,126.52709 93.2468256,129.496126 91.2755207,132.269481 C90.6389535,133.976254 90.4130749,134.923254 90.1135138,136.549097 C89.9105854,137.650709 90.8177238,140.087058 90.8660401,141.352945 C90.9083169,142.345845 91.1209086,143.81466 90.6921015,144.736293 C90.4058274,145.081755 90.4541437,145.231535 89.8731403,145.438087 C89.5276788,145.561294 89.1471879,145.558878 88.7981027,145.446543 L88.3922458,145.313673 C87.9791415,145.097458 87.7617182,144.860708 87.5696609,144.805144 C87.5696609,144.805144 86.6383643,147.631647 86.8835695,149.406063 C86.6335327,150.622426 86.994697,152.186666 86.8026397,153.398197 C87.6264325,155.73429 87.8438559,156.320125 88.0624871,156.893881 C87.6711251,157.106473 91.010989,162.921339 92.1210559,165.401173 C93.1332823,167.249271 92.9992045,167.949857 92.9979966,167.949857 C92.7527914,168.064608 92.8856613,168.152786 92.5039625,168.324308 C92.3602215,168.389535 91.9024247,167.633385 91.4047668,167.847185 C91.25861,167.909996 91.1571458,168.094806 90.5870135,168.32914 C90.4432725,168.38712 89.7342309,168.054945 89.1906726,168.269953 C89.0819609,168.312229 88.0781899,167.737265 87.4500781,167.974015 C86.8678667,168.193854 86.459594,168.085143 86.2892791,168.146746 C86.2892791,168.146746 86.2953186,168.149162 86.2977344,168.155201 C86.3001503,168.161241 85.8930855,168.375041 85.6309696,168.465634 C85.0064815,168.683057 84.3699143,168.754323 83.4096279,168.474089 C82.7501105,168.282032 82.026574,168.892025 81.6968152,168.760363 C81.3960463,168.64078 80.9491206,169.035766 80.5142739,168.876322 C80.4140176,168.840085 79.9501812,168.375041 79.4621866,168.218013 C79.0756562,168.093598 78.7338185,168.174528 78.1999234,168.021124 C78.1117462,167.995758 78.4813658,168.486168 77.5971776,168.239755 C76.8156616,168.021124 77.0814012,167.980055 76.8156616,167.905165 C76.3711516,167.78075 76.1585599,168.413694 75.8831571,168.33518 C75.5775565,168.24821 75.0605721,168.12138 74.7054474,168.019916 C74.0398904,167.830274 73.9903662,168.267537 73.9215155,168.24821 C73.1532864,168.022332 73.6340335,168.631117 73.4021153,168.584008 C72.94915,168.492208 73.0494064,168.143122 72.5094718,168.053737 C72.0516749,167.978847 71.8100934,168.690304 71.4912058,168.628701 C71.3112276,168.59488 70.4052971,168.654067 70.2229031,168.147954 C70.1117756,167.83873 69.8907286,168.82559 69.7397402,168.289279 C69.5778806,167.713107 68.9038682,169.349822 68.8265622,169.149309 C68.7420087,168.92947 67.8397019,168.998321 67.8058804,168.921015 C67.7454851,168.784521 67.4833692,168.530861 67.3601626,168.295319 C67.3070147,168.192646 67.5389329,167.901541 67.4302213,167.717939 C67.3529152,167.588693 69.5573461,164.084554 69.4957429,163.989129 C69.728869,163.549451 69.9523319,163.123059 70.1443891,162.746192 C71.4247709,160.811125 72.2678903,158.484695 73.3211855,156.43246 C73.536193,156.02298 74.1051174,154.962437 74.3116696,154.565036 C74.5170138,153.409068 74.7912088,152.076746 74.8854256,150.899037 C75.3975783,148.126889 71.0092508,142.351884 70.8413517,141.78296 C70.5224641,141.273223 70.210824,140.729664 69.9269658,140.200601 C69.7095425,140.195769 67.8590284,137.311287 67.5075273,136.95133 C67.5413487,136.715788 67.5824176,136.435554 67.6174469,136.200012 C69.5609699,134.803671 71.5117403,133.33244 73.6388652,132.222373 C73.9227234,130.276434 74.2198686,128.243526 74.5025189,126.298795 C75.2405503,123.186018 76.2080841,120.049082 76.9702737,116.94476 C76.0317297,117.565625 74.9542763,117.983561 73.8780308,118.273458 C73.5857172,117.949739 73.5265298,117.884512 73.2342162,117.560793 C74.1461863,115.248858 75.6162095,114.390036 77.630999,113.103615 C78.2687741,112.691718 78.5562561,112.393365 79.104646,111.974221 C79.4319889,111.857054 79.6892732,111.168547 79.7883216,110.881065 C80.9599918,107.45544 83.0871166,104.454998 85.1997466,101.552397 C86.9524202,98.979554 88.8886958,96.4055033 90.8781192,94.0090151 C91.1233244,93.6104057 95.1782695,89.7112807 94.6673246,89.5421736 C94.4136641,89.458828 94.0464602,89.132693 93.6563062,89.0892084 L92.3662611,88.2871579 C91.7224465,87.724273 91.0351472,86.6492355 90.9711281,85.9148278 C90.9711281,85.9148278 88.7063017,83.1716702 90.8660401,82.4275992 C92.889285,81.7294287 94.1443007,81.973426 96.2714256,82.1485726 C97.3911558,82.1872256 101.229885,82.2403736 102.294052,81.8852488 C103.25313,80.578293 104.974398,79.6989365 106.266859,78.7652241 C107.4035,77.9450549 108.856613,76.8953834 110.072975,76.0063636 C113.138644,74.1014937 116.174115,71.9055181 119.539345,70.5550776 C120.140883,70.3183278 120.936894,69.9173025 121.565006,69.7602746 C122.177415,69.6056624 122.775329,69.389447 123.448134,69.3592493 C123.80809,69.3435465 124.286421,69.37616 124.592022,69.6745132 C124.842059,69.9173025 124.941107,69.8714021 125.028076,70.3243673 C125.076393,70.57682 124.647586,71.202516 124.401173,71.1095071 C123.452965,70.7519665 121.897181,71.7968064 121.697876,71.9816162 C121.223168,72.4212945 116.023127,76.1078278 116.065404,76.3941019 C116.105265,76.665881 116.9508,76.4569131 118.164747,75.974958 C119.208379,75.5618537 125.935215,73.0107533 126.156262,71.2145951 C126.258934,70.3908022 128.725481,71.0865569 128.66267,73.1182571 L128.66267,73.1182571 Z M157.741832,68.5729016 C157.862623,68.4352002 158.264856,67.6198627 158.793919,67.7152874 C159.117638,67.7732669 158.37236,67.0895914 158.912294,67.2260849 C159.492097,67.3734496 158.41222,65.9722771 158.624812,66.0048906 C158.85673,66.0423357 159.248092,65.2257903 159.332646,65.2354536 C159.480011,65.2511564 159.831512,65.1521079 160.096043,65.1621433 C160.21321,65.1678107 160.348496,65.5132723 160.562296,65.5108564 C160.713284,65.5096485 162.644728,69.1708158 162.758271,69.1647762 C163.022803,69.5863359 163.280087,69.9934007 163.510798,70.3485255 C164.545974,72.4249182 166.139204,74.3177091 167.389388,76.2551925 C167.638217,76.6465545 168.27116,77.6696521 168.511534,78.0477271 C169.411425,78.8038771 170.427275,79.7061839 171.399641,80.3777804 C173.544884,82.2077601 180.73918,81.2945821 181.317768,81.4334914 C181.91689,81.4117491 182.543794,81.4141649 183.144124,81.4322835 C183.257667,81.2462658 186.680877,81.0856141 187.167663,80.9624076 C187.354889,81.1085644 187.577144,81.2849188 187.76437,81.4322835 C188.00112,83.8142769 188.299473,86.238547 188.198008,88.637451 C189.740506,89.8550217 191.35427,91.128156 192.89556,92.3469346 C195.22199,94.5417023 197.455411,96.9478538 199.762514,99.1595322 C199.694871,98.0373862 199.871225,96.8947058 200.158707,95.8184604 C200.585099,95.7266594 200.67086,95.7085408 201.097251,95.6167398 C202.643373,97.5626786 202.651828,99.2646201 202.759332,101.652653 C202.796777,102.411219 202.911528,102.80862 203.000913,103.493504 C202.938102,103.835342 203.405562,104.403058 203.604867,104.63256 C205.98686,107.361223 207.520903,110.702295 208.978847,113.982971 C210.329287,116.787732 211.591551,119.751937 212.67142,122.672657 C212.894883,123.083346 214.244115,128.545503 214.64514,128.187962 C214.845653,128.009192 215.310697,127.85458 215.543823,127.538108 L216.883393,126.821819 C217.692691,126.546416 218.968241,126.488436 219.635006,126.800077 C219.635006,126.800077 223.142769,126.210618 222.707922,128.452494 C222.300857,130.553045 221.461362,131.518163 220.246207,133.27446 C219.653124,134.223875 217.687859,137.52267 217.463188,138.620658 C218.115458,140.103968 218.01641,142.035412 218.179477,143.621395 C218.32201,145.016528 218.504404,146.799399 218.665056,148.295996 C218.782223,151.905223 219.16513,155.631618 218.652977,159.221518 C218.557552,159.860501 218.505612,160.749521 218.329258,161.372801 C218.156527,161.980379 218.044192,162.606075 217.73376,163.203989 C217.568276,163.522877 217.301329,163.921486 216.889432,164.037445 C216.553634,164.131662 216.543971,164.240374 216.107916,164.089385 C215.865127,164.00604 215.537784,163.321156 215.74192,163.153257 C216.525852,162.511858 216.399022,160.642017 216.338627,160.376278 C216.194886,159.74575 215.603011,153.399405 215.333648,153.293109 C215.078779,153.191645 214.83599,154.027517 214.646348,155.321186 C214.482073,156.431252 213.328521,163.53254 214.773179,164.622072 C215.435112,165.122146 213.599093,166.911057 211.871785,165.840851 C209.621454,164.445718 205.050732,159.035501 204.40571,158.339746 L200.376131,153.496037 L194.30398,145.063636 C192.175647,142.109095 190.890434,138.997525 189.008514,135.952391 C188.578499,135.193825 187.641163,133.760039 187.00822,133.185075 C186.130071,131.959049 184.407595,131.071237 183.193648,130.213623 C180.795952,128.603482 178.124061,126.987302 176.348437,124.672952 C176.352061,124.213947 176.355685,123.834664 176.359308,123.376867 C176.803818,122.861091 177.383614,122.330819 177.644522,121.690628 C178.26297,120.498424 178.526294,118.976461 179.178564,117.78788 C179.238959,117.423092 179.35975,116.689892 179.421353,116.323896 C179.880358,115.833486 180.142474,115.008485 180.417877,114.405739 C180.572489,114.412986 180.884129,114.426273 181.038741,114.433521 C181.294818,114.649736 181.811802,115.084583 182.069086,115.300798 C181.281531,112.006835 180.754883,106.980732 179.339216,103.887282 C178.178417,102.482485 177.471791,101.812097 176.213151,100.740683 C175.360369,100.013523 172.797189,99.5810918 171.677459,98.9904251 C170.795687,98.5302124 169.417465,97.9794067 168.834045,97.1471585 C168.677017,96.7268067 168.523613,96.6941932 168.635949,96.0878237 C168.702383,95.7266594 168.893233,95.3981086 169.16622,95.1529034 L169.482692,94.8666293 C169.877677,94.6178004 170.190525,94.5477418 170.334266,94.4088325 C170.334266,94.4088325 168.353298,92.1886987 166.693633,91.5146864 C165.765961,90.6896856 164.229502,90.2198097 163.276463,89.4491648 C160.84253,88.9937837 160.226497,88.8886958 159.61892,88.7908553 C159.632207,88.3463453 152.925905,88.3306425 150.222608,88.0540318 C148.116018,88.0057155 147.577291,87.5382553 147.577291,87.5382553 C147.600242,87.268892 147.457709,87.3401585 147.499985,86.9222225 C147.515688,86.7651946 148.399876,86.747076 148.462687,86.2095572 C148.482014,86.0513213 148.372094,85.8713431 148.454232,85.260142 C148.474767,85.1067378 149.117373,84.6586041 149.204343,84.0812244 C149.221253,83.9652653 150.221401,83.3830539 150.330112,82.7211207 C150.431576,82.1075038 150.728722,81.8079427 150.761335,81.6291724 C150.761335,81.6291724 150.756504,81.6327962 150.749256,81.6327962 C150.743217,81.6315883 150.761335,81.1725834 150.813275,80.8995964 C150.93769,80.2509501 151.194974,79.6639071 151.917303,78.9717762 C152.413752,78.4970686 152.247061,77.565772 152.526088,77.3459329 C152.779748,77.1442124 152.661373,76.5595852 153.016498,76.26244 C153.098636,76.1947972 153.732787,76.0256901 154.11207,75.6814365 C154.414047,75.4084495 154.515511,75.0726512 154.914121,74.6873288 C154.980556,74.6233097 154.37177,74.6981999 155.027664,74.0555932 C155.60746,73.4878767 155.509619,73.7379136 155.706508,73.5458563 C156.037475,73.223345 155.59538,72.7232714 155.800725,72.5239666 C156.029019,72.3029196 156.397431,71.9175971 156.663171,71.6615208 C157.160828,71.1795657 156.805704,70.9186577 156.857644,70.8679256 C157.436231,70.315912 156.66921,70.4282474 156.826238,70.250685 C157.131839,69.9040156 157.384291,70.1649235 157.732169,69.742156 C158.024482,69.3834075 157.530448,68.8181068 157.741832,68.5729016 L157.741832,68.5729016 Z M143.500604,277.867012 C69.4099814,277.867012 9.13298766,217.590019 9.13298766,143.499396 C9.13298766,69.4087735 69.4099814,9.13177975 143.500604,9.13177975 C217.591226,9.13177975 277.867012,69.4087735 277.867012,143.499396 C277.867012,217.590019 217.591226,277.867012 143.500604,277.867012 L143.500604,277.867012 Z M143.500604,8.26208644 C68.9304422,8.26208644 8.26208644,68.9292343 8.26208644,143.499396 C8.26208644,218.069558 68.9304422,278.736706 143.500604,278.736706 C218.069558,278.736706 278.737914,218.069558 278.737914,143.499396 C278.737914,68.9292343 218.069558,8.26208644 143.500604,8.26208644 L143.500604,8.26208644 Z M143.500604,286.129099 C64.8549627,286.129099 0.870901217,222.145037 0.870901217,143.499396 C0.870901217,64.8537548 64.8549627,0.869693309 143.500604,0.869693309 C222.146245,0.869693309 286.129099,64.8537548 286.129099,143.499396 C286.129099,222.145037 222.146245,286.129099 143.500604,286.129099 L143.500604,286.129099 Z M-7.10542736e-15,143.499396 C-7.10542736e-15,222.624576 64.3742156,286.998792 143.500604,286.998792 C222.625784,286.998792 287,222.624576 287,143.499396 C287,64.3742156 222.625784,0 143.500604,0 C64.3742156,0 -7.10542736e-15,64.3742156 -7.10542736e-15,143.499396 Z" id="Fill-1"></path>
            </g>
        </g>
    </g>
</svg>